<?xml version="1.0" encoding="utf-8"?>
<!-- Generator: Adobe Illustrator 16.0.1, SVG Export Plug-In . SVG Version: 6.00 Build 0)  -->
<!DOCTYPE svg PUBLIC "-//W3C//DTD SVG 1.1//EN" "http://www.w3.org/Graphics/SVG/1.1/DTD/svg11.dtd">
<svg version="1.1" id="Layer_1" xmlns="http://www.w3.org/2000/svg" xmlns:xlink="http://www.w3.org/1999/xlink" x="0px" y="0px"
	 width="31.751px" height="39.838px" viewBox="0 0 31.751 39.838" enable-background="new 0 0 31.751 39.838" xml:space="preserve">
<path fill="#666766" d="M29.932,12.896c-0.093-1.278-1.221-2.323-2.5-2.323H4.322c-1.282,0-2.406,1.045-2.501,2.323L0.006,37.514
	c-0.094,1.278,0.878,2.324,2.158,2.324h27.424c1.282,0,2.252-1.046,2.156-2.324L29.932,12.896L29.932,12.896z M8.637,15.784
	c-1.025,0-1.855-0.806-1.855-1.798c0-0.995,0.83-1.798,1.855-1.798c1.024,0,1.854,0.803,1.854,1.798
	C10.492,14.978,9.662,15.784,8.637,15.784z M23.473,15.784c-1.024,0-1.854-0.806-1.854-1.798c0-0.995,0.83-1.798,1.854-1.798
	s1.854,0.803,1.854,1.798C25.329,14.978,24.498,15.784,23.473,15.784z M8.637,14.6c-0.429,0-0.785-0.335-0.807-0.767
	c-0.017-0.324-0.377-8.018,3.202-11.789C12.319,0.688,13.948,0,15.877,0c1.924,0,3.57,0.688,4.89,2.04
	c3.671,3.764,3.523,11.447,3.516,11.772c-0.012,0.447-0.426,0.768-0.829,0.788c-0.446-0.011-0.799-0.38-0.789-0.826
	c0.002-0.073,0.137-7.334-3.058-10.607c-1.018-1.043-2.239-1.55-3.73-1.55c-1.487,0-2.687,0.503-3.67,1.538
	C9.105,6.42,9.442,13.677,9.445,13.749c0.023,0.445-0.319,0.826-0.766,0.851C8.666,14.6,8.652,14.6,8.637,14.6L8.637,14.6z"/>
</svg>
