<?xml version="1.0" encoding="utf-8"?>
<!-- Generated by IcoMoon.io -->
<!DOCTYPE svg PUBLIC "-//W3C//DTD SVG 1.1//EN" "http://www.w3.org/Graphics/SVG/1.1/DTD/svg11.dtd">
<svg version="1.1" xmlns="http://www.w3.org/2000/svg" xmlns:xlink="http://www.w3.org/1999/xlink" width="1024" height="1024" viewBox="0 0 1024 1024">
	<path d="M865.096 221.284c5.034-4.85 2.674-16.654-10.496-16.654-8.988-0.484-18.29 1.366-27.748 4.466-28.63 9.13-59.222 29.226-88.918 31.474 0 0-578.262 44.942-580.594 48.214-5.66 11.946 17.252 21.902 20.28 35.072 2.858 13.226-0.612 163.256 59.506 212.266 47.944 37.532 322.916 19.768 342.088 28.046 19.256 8.264 62.222 26.34 40.362 106.126-14.862 56.974-192.712 49.578-192.712 49.578s-212.664-12.274-253.668 12.7c-11.734 8.818-2.076 64.952 21.064 52.594 32.312-18.588 159.658-3.498 222.776-3.498 63.032 0 150.784 8.76 224.384-22.812 11.734 5.206 55.566 20.182 77.568 49.194-1.352 4.408-2.12 9.088-2.12 13.938 0 26.624 21.618 48.256 48.184 48.256 26.752 0 48.412-21.632 48.412-48.256 0-26.61-21.66-48.214-48.412-48.214-2.36 0-4.708 0.128-7.068 0.498-18.646-21.034-64.74-73.316-64.456-94.648-0.356-73.444 56.76-304.896 101.816-408.078 6.576-17.11 38.676-22.032 69.752-50.262zM583.196 299.122c15.246 0.298 27.506 12.886 27.25 28.216-0.27 15.274-12.872 27.492-28.188 27.222-15.232-0.298-27.506-12.9-27.236-28.188 0.214-15.332 12.8-27.492 28.174-27.25zM506.538 304.682c15.318 0.284 27.534 12.872 27.264 28.216-0.17 15.274-12.872 27.492-28.174 27.222-15.26-0.27-27.52-12.9-27.264-28.246 0.314-15.23 12.914-27.448 28.174-27.192zM429.98 310.244c15.232 0.27 27.492 12.856 27.25 28.146-0.328 15.346-12.984 27.506-28.246 27.25-15.288-0.242-27.434-12.872-27.208-28.174 0.328-15.318 12.916-27.492 28.204-27.222zM353.408 315.804c15.19 0.242 27.42 12.828 27.164 28.174-0.27 15.274-12.856 27.478-28.174 27.178-15.288-0.2-27.448-12.828-27.236-28.146 0.214-15.316 12.958-27.476 28.246-27.206zM248.59 348.586c0.2-15.304 12.8-27.52 28.146-27.222 15.26 0.2 27.406 12.856 27.15 28.174-0.214 15.304-12.8 27.478-28.118 27.192-15.316-0.196-27.42-12.826-27.178-28.144zM289.848 419.256c0.298-15.304 12.956-27.52 28.274-27.236 15.318 0.256 27.478 12.856 27.278 28.188-0.412 15.346-13.042 27.478-28.288 27.25-15.246-0.312-27.448-12.926-27.264-28.202zM354.346 518.314c-15.246-0.284-27.548-12.872-27.178-28.202 0.256-15.332 12.8-27.464 28.132-27.208 15.304 0.27 27.464 12.856 27.192 28.146-0.198 15.332-12.842 27.534-28.146 27.264zM366.52 415.332c0.256-15.304 12.856-27.478 28.104-27.236 15.346 0.27 27.464 12.886 27.236 28.202-0.184 15.288-12.9 27.448-28.146 27.208-15.29-0.27-27.534-12.842-27.194-28.174zM430.89 514.646c-15.218-0.228-27.576-12.9-27.15-28.146 0.17-15.36 12.786-27.534 28.118-27.222 15.374 0.27 27.52 12.856 27.278 28.132-0.27 15.288-12.872 27.506-28.246 27.236zM443.136 411.448c0.228-15.288 12.8-27.492 28.088-27.222 15.318 0.284 27.52 12.856 27.25 28.202-0.256 15.274-12.842 27.478-28.174 27.222-15.246-0.24-27.548-12.898-27.164-28.202zM507.42 512.668c-15.246-0.284-27.478-12.886-27.222-28.174 0.228-15.304 12.9-27.52 28.316-27.222 15.19 0.228 27.35 12.842 27.15 28.146-0.24 15.276-12.94 27.492-28.244 27.25zM519.638 407.552c0.228-15.288 12.842-27.506 28.202-27.236 15.274 0.256 27.52 12.886 27.236 28.174-0.312 15.304-12.842 27.506-28.216 27.25-15.276-0.256-27.408-12.914-27.222-28.188zM584.050 510.664c-15.332-0.284-27.52-12.842-27.292-28.188 0.228-15.274 12.872-27.448 28.202-27.208 15.332 0.27 27.534 12.886 27.208 28.232-0.242 15.244-12.83 27.42-28.118 27.164zM623.474 431.8c-15.36-0.214-27.492-12.842-27.222-28.146 0.214-15.304 12.842-27.52 28.246-27.178 15.26 0.2 27.406 12.8 27.094 28.146-0.158 15.274-12.886 27.492-28.118 27.178zM658.788 349.014c-15.218-0.27-27.448-12.9-27.178-28.188 0.27-15.332 12.914-27.478 28.174-27.236 15.332 0.298 27.548 12.872 27.278 28.188-0.286 15.288-12.914 27.52-28.274 27.236zM239.858 794.808c-21.39 0-38.614 17.678-38.614 39.452 0 21.788 17.224 39.438 38.614 39.438 21.32 0 38.57-17.65 38.57-39.438 0-21.772-17.252-39.452-38.57-39.452zM613.462 231.766c0 0-47.204-60.6-49.592-61.084-2.39-0.512-17.138 9.784-17.636 11.72-0.47 1.962 29.354 52.836 29.354 52.836l37.874-3.472z" />
</svg>
