<?xml version="1.0" encoding="utf-8"?>
<!-- Generated by IcoMoon.io -->
<!DOCTYPE svg PUBLIC "-//W3C//DTD SVG 1.1//EN" "http://www.w3.org/Graphics/SVG/1.1/DTD/svg11.dtd">
<svg version="1.1" xmlns="http://www.w3.org/2000/svg" xmlns:xlink="http://www.w3.org/1999/xlink" width="1024" height="1024" viewBox="0 0 1024 1024">
	<path d="M543.104 537.7c-10.254 4.664-17.28 10.966-21.092 18.916-3.798 7.964-4.124 15.416-0.924 22.386 2.802 6.186 6.968 10.226 12.472 12.074 5.532 1.848 12.074 1.052 19.626-2.376 9.202-4.196 16.426-10.34 21.674-18.404 5.248-8.106 7.608-15.716 7.082-22.856l-10.34-22.698-28.498 12.958zM748.26 417.366c-4.594-10.14-10.936-17.408-18.93-21.774-7.992-4.338-17.18-4.168-27.606 0.584-8.832 4.024-14.648 10.794-17.336 20.238-2.702 9.514-2.276 19.854 1.28 31.090l0.554 0.54 63.004-28.616-0.966-2.062zM919.566 480.682l-110.578-243.314c-10.61-23.396-38.144-33.706-61.496-23.096l-520.15 236.402-0.754-1.664-62.364 28.586c-27.534 12.6-41.188 41.714-30.52 64.996l7.126 15.56 16.584 36.182 23.836 52.054-63.416 29.056c-14.168 6.484-21.222 21.444-15.718 33.42 5.49 11.99 21.404 16.384 35.598 9.912l63.402-29.056 45.368 99.016c10.666 23.296 41.628 31.958 69.162 19.37l62.35-28.558-0.654-1.45 519.168-235.918c23.34-10.624 33.666-38.144 23.056-61.498zM264.392 682.738c-13.654 6.23-28.942 4.48-40.874-3.272l18.36-8.406c14.166-6.5 21.234-21.462 15.744-33.422-5.476-11.99-21.448-16.412-35.612-9.912l-18.332 8.392c1.934-14.080 10.582-26.808 24.206-33.052 21.462-9.828 47.062 0.014 57.13 22.016 10.082 22 0.838 47.8-20.622 57.656zM480.44 633.258c-6.442 12.416-17.778 22.258-33.948 29.61-17.792 8.092-33.878 9.928-48.228 5.576-14.336-4.408-23.992-12.7-28.942-25.002l-0.1-0.91 24.278-11.008c4.522 8.832 10.894 13.924 19.044 15.218 8.178 1.336 16.484 0.072 24.904-3.768 9.046-4.096 15.246-9.202 18.616-15.388 3.37-6.144 3.754-12.174 1.038-18.104-2.518-5.618-6.742-9.202-12.6-10.78-5.846-1.622-15.332-1.038-28.416 1.664-18.034 3.968-32.91 4.736-44.616 2.39-11.72-2.346-19.996-8.846-24.86-19.542-5.134-11.364-4.736-23.254 1.308-35.784 5.974-12.458 16.668-22.216 32.072-29.198 15.844-7.21 30.606-8.704 44.33-4.58 13.71 4.152 22.954 12.032 27.72 23.666l0.1 0.882-24.264 11.036c-2.73-6.030-7.85-10.282-15.402-12.786-7.496-2.488-15.318-1.906-23.41 1.792-8.918 4.054-14.692 9.116-17.28 15.146-2.616 6.072-2.616 11.89-0.086 17.48 2.518 5.518 6.328 8.918 11.534 10.184 5.206 1.252 14.364 0.44 27.434-2.518 18.788-4.168 34.104-4.95 45.952-2.332 11.89 2.574 20.266 9.216 25.088 19.882 5.646 12.4 5.22 24.802-1.266 37.174zM603.818 588.118c-2.774-3.812-5.148-7.254-7.082-10.254-1.962-3-3.698-6.158-5.248-9.372-1.692 8.874-5.32 17.294-10.894 25.258-5.56 7.964-12.714 13.952-21.49 17.948-14.55 6.614-27.292 7.95-38.328 3.94-10.966-3.982-19.442-12.516-25.4-25.6-6.044-13.34-5.39-26.226 2.006-38.642 7.352-12.43 20.338-22.856 38.812-31.274l27.592-12.516-6.258-13.81c-3.726-8.192-9.144-13.496-16.328-16.028-7.126-2.504-15.274-1.664-24.406 2.474-8.264 3.74-13.98 8.832-17.18 15.304-3.2 6.4-3.484 12.516-0.882 18.262l-23.992 11.222-0.626-0.64c-5.22-9.87-4.708-21.32 1.592-34.36 6.244-13.028 17.408-23.14 33.408-30.45 15.844-7.182 30.392-8.946 43.676-5.304 13.312 3.67 23.396 13.098 30.25 28.216l30.564 67.228c2.232 4.992 4.722 9.714 7.352 14.108 2.602 4.408 5.632 8.52 9.046 12.388l-26.184 11.902zM652.146 566.144l-91.492-201.316 25.4-11.548 91.506 201.316-25.414 11.548zM789.774 500.85c-6.67 7.012-15.73 13.17-27.264 18.376-20.068 9.144-38.614 9.828-55.666 2.104-17.052-7.708-30.336-22.030-39.808-42.922l-2.602-5.66c-9.116-20.040-10.88-39.268-5.262-57.656 5.632-18.346 16.782-31.346 33.48-38.926 18.66-8.504 35.286-9.060 49.906-1.692 14.606 7.382 26.296 20.708 35.072 39.964l6.088 13.44-89.272 40.562-0.1 0.84c6.372 14.024 14.62 24.008 24.776 29.91 10.184 5.93 21.632 5.974 34.346 0.184 8.604-3.896 15.588-8.534 20.992-13.952 5.376-5.376 9.4-11.292 12.104-17.706l17.464 12.004c-2.848 7.064-7.57 14.118-14.254 21.13z" />
</svg>
