<?xml version="1.0" encoding="utf-8"?>
<!-- Generated by IcoMoon.io -->
<!DOCTYPE svg PUBLIC "-//W3C//DTD SVG 1.1//EN" "http://www.w3.org/Graphics/SVG/1.1/DTD/svg11.dtd">
<svg version="1.1" xmlns="http://www.w3.org/2000/svg" xmlns:xlink="http://www.w3.org/1999/xlink" width="1024" height="1024" viewBox="0 0 1024 1024">
	<path d="M718.934 406.072c-2.844-11.818-7.438-22.884-14.692-32.64-10.852-14.578-23.722-27.392-37.93-38.5-16.952-13.24-36.252-22.172-57.386-27.15-16.342-3.854-32.37-2.090-48.086 2.090-13.61 3.626-25.102 11.592-34.702 21.988-6.698 7.24-13.084 14.848-15.46 24.704-5.006 20.566-1.564 40.306 7.154 59.178 5.020 10.852 13.326 19.498 21.034 28.458 14.55 16.924 32.2 30.578 48.668 45.482 15.432 13.98 31.288 27.52 46.748 41.486 7.624 6.884 15.83 11.99 26.44 12.118 1.55 0.014 3.086 0.27 4.622 0.398 2.332-0.37 4.664-0.74 7.012-1.11 2.048-0.796 4.068-1.592 6.13-2.346 12.758-4.608 21.192-14.564 25.77-26.154 6.784-17.010 11.79-34.902 15.944-52.778 4.238-18.274 3.128-36.89-1.266-55.224zM704.44 467.74c-6.898 22.2-22.528 29.966-42.88 30.792-26.368 1.038-47.090-11.804-65.948-28.118-22.216-19.186-38.002-42.838-46.264-71.196-0.982-3.4-1.536-6.912-2.276-10.368-0.298-0.014-1.464-18.36-0.568-27.406 2.134-21.732 20.21-38.23 42.012-38.954 18.944-0.612 35.784 5.704 51.286 16.086 8.718 5.846 17.38 11.804 24.434 19.67 18.902 21.064 35.030 43.776 41.046 72.136 2.644 12.456 2.998 25.028-0.842 37.358zM628.822 358.286c-15.36-8.406-29.27-9.6-43.704 4.366-9.116 8.804-13.312 19.512-11.15 31.972 2.020 11.662 5.916 22.84 13.91 31.914 5.078 5.774 10.71 11.080 16.456 16.214 11.008 9.814 23.082 18.062 36.892 23.538 7.88 3.128 15.702 2.802 22.216-2.674 10.026-8.392 16.2-18.858 15.218-32.968-1.664-8.662-3.712-17.464-7.338-25.386-9.15-19.996-22.974-36.28-42.5-46.976zM241.066 658.446c-20.566 3.272-35.128 23.452-31.83 44.032s23.382 35.030 43.932 31.744c20.566-3.286 35.044-23.296 31.744-43.848-3.27-20.564-23.28-35.228-43.846-31.928zM250.282 716.104c-10.88 1.736-21.078-5.66-22.826-16.526-1.72-10.88 5.674-21.078 16.54-22.826 10.866-1.72 21.064 5.66 22.812 16.54 1.722 10.85-5.674 21.076-16.526 22.812zM874.326 269.34c-13.042-32.726-45.54-54.968-80.682-55.254-1.578-0.014-3.186-0.512-4.75-0.768-211.030 33.72-422.044 67.442-633.060 101.162-2.646 1.208-5.276 2.446-7.936 3.612-35.47 15.544-54.144 42.624-55.964 81.322-0.072 1.48-0.526 2.916-0.81 4.366 18.232 114.076 36.452 228.124 54.684 342.2 0.754 1.422 1.75 2.744 2.232 4.252 11.292 34.488 45.71 59.548 81.934 59.662 1.706 0.014 3.414 0.498 5.134 0.768 59.364-9.486 118.728-18.972 178.076-28.458 1.65-0.426 3.256-0.952 4.936-1.224 25.258-4.068 50.546-8.092 75.804-12.146 1.664-0.27 3.328-0.526 4.21-0.668 0.824-8.15 1.664-15.716 2.29-23.31 0.184-2.276-0.284-4.58-0.426-6.884-0.284-4.082-1.224-8.264-0.654-12.232 0.768-5.134 2.986-10.026 4.11-15.132 0.924-4.138 1.536-8.448 1.592-12.672 0.042-5.462-0.54-10.922-0.982-16.356-0.398-4.822-1.010-9.6-1.45-14.422-0.228-2.304-1.066-3.712-3.684-3.37-5.59 0.712-11.136 1.564-16.74 2.006-3.868 0.298-7.836 0.328-11.662-0.214-6.2-0.896-12.374-2.12-18.46-3.67-9.828-2.504-20.082-4.494-24.918-15.288-0.868-1.892-2.104-3.612-2.986-5.49-1.010-2.162-2.574-2.73-4.936-2.972-6.6-0.64-12.872-2.858-16.128-8.946-9.202-17.208-27.89-25.272-26.824-50.062-1.736-7.552 4.394-18.944 7.51-26.112 3.528-8.036 0.056-24.376 0.056-24.376s-14.122-45.696-3.656-72.434c7.978-18.048 11.576-32.726 5.604-31.716-5.988 1.038-16.54 11.35-18.888 14.108-4.694 5.546-9.8 10.88-15.402 15.502-8.562 7.054-18.36 7.424-28.33 2.986-6.23-2.788-12.288-5.974-18.46-8.918-1.294-0.612-2.73-0.896-4.068-1.422-6.072-2.332-7.88-7.282-4.608-12.9 0.91-1.564 1.948-3.172 3.242-4.438 10.596-10.482 21.206-20.992 32-31.288 5.76-5.518 12.074-10.468 17.864-15.972 17.864-16.896 34.248-35.428 54.486-49.736 6.926-4.92 13.682-10.24 22.4-11.548 3.384-0.54 5.944-2.062 8.562-4.28 14.038-12.018 28.942-22.6 45.896-30.492 13.98-6.514 28.558-10.88 43.15-15.36 10.724-3.3 21.76-4.438 32.924-4.508 12.018-0.086 24.008-0.682 35.996-0.44 22.87 0.426 44.686 7.41 66.916 11.662 5.334 1.010 20.040-0.27 22.058-0.754 7.864-1.892 15.986-3.072 23.58-5.732 13.156-4.65 25.316-2.304 37.020 3.868 4.906 2.574 9.016 6.656 13.596 9.898 9.16 6.472 18.432 12.8 27.606 19.256 1.92 1.336 18.276 10.326 24.79 13.042 6.5 2.73 40.036 24.918 43.534 30.408 3.47 5.476 3.442 22.216 1.194 27.050-3.158 9.87-38.144 30.834-42.14 32.868-5.048 2.574-10.34 4.778-15.716 6.486-6.216 1.976-12.686 3.072-18.93 4.892-5.262 1.522-7.766 6.144-6.856 11.79 1.522 9.728 6.314 62.364 9.77 77.212 3.442 14.862 15.104 35.428 21.902 44.36 4.438 5.832 15.004 19.072 26.538 31.304 11.562 12.202 27.734 22.442 27.734 22.442s15.816 13.852 28.074 35.67c8.59 11.336 18.248 21.902 23.992 35.186 1.45 3.37 4.522 3.626 6.812 0.626 9.344-12.302 15.488-26.012 17.322-41.472 0.612-5.206 1.010-10.44 1.508-15.672-18.218-114.076-36.452-228.124-54.684-342.2-1.288-2.87-2.682-5.714-3.848-8.658zM256.284 753.678c-31.63 5.034-61.34-16.484-66.404-48.114s16.484-61.326 48.114-66.404c31.616-5.034 61.326 16.484 66.39 48.114s-16.498 61.356-48.1 66.404zM453.134 540.032c12.188-3.1 8.49-9.842 29.084-13.368 21.916-3.498 28.686 4.992 29.496 15.26 0.81 10.282-15.944 17.522-15.772 23.752 0.17 6.216 9.8 22.158-15.46 28.274-25.23 6.116-23.282-15.432-39.338-19.528-16.056-4.082-25.656-22.528-14.108-31.032s15.886-1.21 26.098-3.358zM409.188 408.32c-0.042 0.886-0.040 1.906 0.012 2.94 0.592 11.68 7.392 20.829 15.189 20.434 6.398-0.324 11.479-6.973 12.769-15.802 0.315-7.024 0.313-8.044 0.261-9.079-0.592-11.68-7.392-20.829-15.189-20.434-6.398 0.324-11.478 6.972-12.769 15.801z" />
</svg>
