<?xml version="1.0" encoding="utf-8"?>
<!-- Generated by IcoMoon.io -->
<!DOCTYPE svg PUBLIC "-//W3C//DTD SVG 1.1//EN" "http://www.w3.org/Graphics/SVG/1.1/DTD/svg11.dtd">
<svg version="1.1" xmlns="http://www.w3.org/2000/svg" xmlns:xlink="http://www.w3.org/1999/xlink" width="1024" height="1024" viewBox="0 0 1024 1024">
	<path d="M810.666 327.112c0 15.644-12.8 28.444-28.444 28.444l-540.444 0c-15.644 0-28.444-12.8-28.444-28.444v-42.666c0-15.644 12.8-28.444 28.444-28.444h540.444c15.644 0 28.444 12.8 28.444 28.444l0 42.666zM810.666 526.222c0 15.644-12.8 28.444-28.444 28.444h-540.444c-15.644 0-28.444-12.8-28.444-28.444v-42.666c0-15.644 12.8-28.444 28.444-28.444h540.444c15.644 0 28.444 12.8 28.444 28.444l0 42.666zM810.666 725.334c0 15.644-12.8 28.444-28.444 28.444h-540.444c-15.644 0-28.444-12.8-28.444-28.444v-42.666c0-15.644 12.8-28.444 28.444-28.444h540.444c15.644 0 28.444 12.8 28.444 28.444l0 42.666z" />
</svg>
