<?xml version="1.0" encoding="utf-8"?>
<!-- Generated by IcoMoon.io -->
<!DOCTYPE svg PUBLIC "-//W3C//DTD SVG 1.1//EN" "http://www.w3.org/Graphics/SVG/1.1/DTD/svg11.dtd">
<svg version="1.1" xmlns="http://www.w3.org/2000/svg" xmlns:xlink="http://www.w3.org/1999/xlink" width="1024" height="1024" viewBox="0 0 1024 1024">
	<path d="M420.85 627.954v-35.3c0-16.228 1.664-30.934 5.034-44.146 3.328-13.184 8.406-25.77 15.246-37.704 6.856-11.918 15.672-23.524 26.482-34.802 10.824-11.306 23.85-22.984 39.112-35.086 13.368-10.51 24.662-19.882 33.892-28.16 9.216-8.248 16.712-16.456 22.442-24.576 5.704-8.106 9.842-16.612 12.402-25.514 2.56-8.918 3.826-19.256 3.826-31.048 0-18.12-6.158-33.066-18.376-44.842-12.246-11.776-30.962-17.664-56.064-17.664-21.96 0-45.554 4.622-70.884 13.838-25.258 9.23-51.442 20.522-78.492 33.906l-48.668-105.458c13.668-7.978 28.53-15.53 44.6-22.698s32.782-13.512 50.104-19.086c17.336-5.56 34.93-9.928 52.736-13.112 17.82-3.172 35.328-4.778 52.48-4.778 32.484 0 61.738 3.896 87.822 11.69 26.112 7.808 48.228 19.158 66.332 34.104 18.134 14.948 32.028 33.11 41.784 54.414 9.672 21.304 14.52 45.64 14.52 73.002 0 20.054-2.218 37.96-6.67 53.688-4.438 15.744-11.036 30.392-19.784 43.89-8.776 13.554-19.74 26.582-32.924 39.154-13.226 12.558-28.586 25.842-46.066 39.85-13.368 10.482-24.264 19.64-32.712 27.448-8.406 7.78-15.032 15.16-19.784 22.172-4.778 7.026-8.022 14.25-9.784 21.718-1.778 7.48-2.632 16.298-2.632 26.482v28.63l-125.974 0.002zM405.106 791.168c0-14.948 2.134-27.562 6.442-37.93 4.296-10.354 10.254-18.674 17.892-25.060 7.624-6.358 16.626-10.966 26.966-13.838 10.34-2.858 21.376-4.31 33.18-4.31 11.108 0 21.704 1.45 31.702 4.31 10.040 2.872 18.844 7.466 26.51 13.838 7.638 6.372 13.668 14.706 18.104 25.060 4.438 10.368 6.712 22.984 6.712 37.93 0 14.336-2.262 26.568-6.712 36.736-4.438 10.212-10.468 18.646-18.104 25.316-7.666 6.67-16.47 11.52-26.51 14.536-9.998 3.016-20.594 4.522-31.702 4.522-11.804 0-22.84-1.508-33.18-4.522-10.34-3.030-19.328-7.88-26.966-14.536-7.638-6.684-13.596-15.104-17.892-25.316-4.294-10.168-6.442-22.4-6.442-36.736z" />
</svg>
