<?xml version="1.0" encoding="utf-8"?>
<!-- Generated by IcoMoon.io -->
<!DOCTYPE svg PUBLIC "-//W3C//DTD SVG 1.1//EN" "http://www.w3.org/Graphics/SVG/1.1/DTD/svg11.dtd">
<svg version="1.1" xmlns="http://www.w3.org/2000/svg" xmlns:xlink="http://www.w3.org/1999/xlink" width="1024" height="1024" viewBox="0 0 1024 1024">
	<path d="M693.774 231.808c-0.042 10.824-7.48 19.626-16.668 19.598-9.16 0-16.554-8.86-16.512-19.712l0.228-79.816c0.028-10.852 7.51-19.626 16.668-19.626 9.188 0.042 16.584 8.888 16.554 19.74l-0.27 79.816zM362.112 231.808c-0.042 10.824-7.51 19.626-16.712 19.598-9.144 0-16.554-8.86-16.512-19.712l0.27-79.816c0.028-10.852 7.51-19.626 16.668-19.626 9.144 0.042 16.554 8.888 16.512 19.74l-0.226 79.816zM748.074 189.81h-208.782c-15.004 0-27.292 0-27.292 0s-12.288 0-27.292 0h-208.782c-15.048 0-27.336 12.302-27.336 27.292v92.074h526.806v-92.074c0.014-14.99-12.288-27.292-27.322-27.292zM346.154 277.59c-18.006 0-32.64-14.18-32.64-31.63 0-17.48 14.634-31.63 32.64-31.63s32.626 14.152 32.626 31.63c0 17.45-14.634 31.63-32.626 31.63zM511.958 277.59c-18.006 0-32.584-14.18-32.584-31.63 0-17.48 14.578-31.63 32.584-31.63 18.048 0 32.64 14.152 32.64 31.63-0 17.45-14.592 31.63-32.64 31.63zM677.816 277.59c-18.006 0-32.598-14.18-32.598-31.63 0-17.48 14.592-31.63 32.598-31.63 18.034 0 32.626 14.152 32.626 31.63 0 17.45-14.592 31.63-32.626 31.63zM527.928 231.808c-0.042 10.824-7.48 19.626-16.668 19.598-9.16 0-16.554-8.86-16.526-19.712l0.228-79.816c0.042-10.852 7.524-19.626 16.668-19.626 9.188 0.042 16.598 8.888 16.554 19.74l-0.256 79.816zM248.59 350.592v218.638 295.224c0 15.004 12.288 27.292 27.336 27.292h208.782c15.004 0 27.292 0 27.292 0s12.288 0 27.292 0h208.782c15.048 0 27.336-12.288 27.336-27.292l-0-295.238v-218.624h-526.82zM363.378 555.448h191.246v29.44h-191.246v-29.44zM363.378 645.448h116.508v29.44h-116.508v-29.44zM629.376 768.228h-265.998v-29.44h265.998v29.44zM654.294 491.548h-290.916v-29.44h290.916v29.44z" />
</svg>
