<?xml version="1.0" encoding="utf-8"?>
<!-- Generated by IcoMoon.io -->
<!DOCTYPE svg PUBLIC "-//W3C//DTD SVG 1.1//EN" "http://www.w3.org/Graphics/SVG/1.1/DTD/svg11.dtd">
<svg version="1.1" xmlns="http://www.w3.org/2000/svg" xmlns:xlink="http://www.w3.org/1999/xlink" width="1024" height="1024" viewBox="0 0 1024 1024">
	<path d="M426.666 142.222c-0 0-0 0-0 0 0 47.129 38.205 85.334 85.334 85.334 47.129 0 85.334-38.205 85.334-85.334 0-0 0-0 0-0 0-47.129-38.205-85.334-85.334-85.334-47.129 0-85.334 38.205-85.334 85.334zM426.666 881.778c-0 0-0 0-0 0 0 47.129 38.205 85.334 85.334 85.334 47.129 0 85.334-38.205 85.334-85.334 0-0 0-0 0-0 0-47.129-38.205-85.334-85.334-85.334-47.129 0-85.334 38.205-85.334 85.334zM56.888 512c0 47.129 38.205 85.334 85.334 85.334s85.334-38.205 85.334-85.334c0-47.129-38.205-85.334-85.334-85.334-47.129 0-85.334 38.205-85.334 85.334zM688.156 250.524c-0.001 0.123-0.001 0.268-0.001 0.413 0 47.121 38.199 85.32 85.32 85.32 46.685 0 84.613-37.496 85.31-84.015 0.009-1.841 0.010-1.986 0.010-2.131 0-47.121-38.199-85.32-85.32-85.32-46.685 0-84.613 37.496-85.31 84.015zM165.206 773.476c-0.001 0.123-0.001 0.268-0.001 0.413 0 47.121 38.199 85.32 85.32 85.32 46.685 0 84.613-37.496 85.31-84.015 0.009-1.841 0.010-1.986 0.010-2.131 0-47.121-38.199-85.32-85.32-85.32-46.685 0-84.613 37.496-85.31 84.015zM688.156 773.476c-0.001 0.123-0.001 0.268-0.001 0.413 0 47.121 38.199 85.32 85.32 85.32 46.685 0 84.613-37.496 85.31-84.015 0.009-1.841 0.010-1.986 0.010-2.131 0-47.121-38.199-85.32-85.32-85.32-46.685 0-84.613 37.496-85.31 84.015zM165.206 250.524c-0.001 0.123-0.001 0.268-0.001 0.413 0 47.121 38.199 85.32 85.32 85.32 46.685 0 84.613-37.496 85.31-84.015 0.009-1.841 0.010-1.986 0.010-2.131 0-47.121-38.199-85.32-85.32-85.32-46.685 0-84.613 37.496-85.31 84.015zM739.556 512c0 0 0 0 0 0 0 62.838 50.94 113.778 113.778 113.778 62.838 0 113.778-50.94 113.778-113.778 0-0 0-0 0-0 0-62.838-50.94-113.778-113.778-113.778-62.838 0-113.778 50.94-113.778 113.778z" />
</svg>
