<?xml version="1.0" encoding="utf-8"?>
<!-- Generated by IcoMoon.io -->
<!DOCTYPE svg PUBLIC "-//W3C//DTD SVG 1.1//EN" "http://www.w3.org/Graphics/SVG/1.1/DTD/svg11.dtd">
<svg version="1.1" xmlns="http://www.w3.org/2000/svg" xmlns:xlink="http://www.w3.org/1999/xlink" width="1024" height="1024" viewBox="0 0 1024 1024">
	<path d="M1024 955.733c0 37.547-30.72 68.267-68.267 68.267h-887.467c-37.547 0-68.267-30.72-68.267-68.267v-477.867c0-37.547 30.72-68.267 68.267-68.267h887.467c37.547 0 68.267 30.72 68.267 68.267v477.867z" />
	<path d="M844.8 614.4h-85.333v-281.6c0-136.465-111.002-247.467-247.467-247.467s-247.467 111.002-247.467 247.467v281.6h-85.333v-281.6c0-183.501 149.299-332.8 332.8-332.8s332.8 149.299 332.8 332.8v281.6z" />
</svg>
