<?xml version="1.0" encoding="utf-8"?>
<!-- Generated by IcoMoon.io -->
<!DOCTYPE svg PUBLIC "-//W3C//DTD SVG 1.1//EN" "http://www.w3.org/Graphics/SVG/1.1/DTD/svg11.dtd">
<svg version="1.1" xmlns="http://www.w3.org/2000/svg" xmlns:xlink="http://www.w3.org/1999/xlink" width="1024" height="1024" viewBox="0 0 1024 1024">
	<path d="M511.886 151.708c-132.892 0-240.668 107.662-240.668 240.668s107.776 240.668 240.668 240.668c133.006 0 240.782-107.662 240.782-240.668s-107.776-240.668-240.782-240.668zM523.734 583.068c-71.78 0-134.884-47.132-171.704-118.442h343.268c-36.824 71.31-99.942 118.442-171.564 118.442zM657.18 664.22c-43.264 23.224-92.772 36.594-145.294 36.594-52.452 0-101.816-13.368-145.224-36.594-93.44 24.618-166.784 82.816-200.306 208.072h691.256c-33.648-125.256-106.836-183.438-200.432-208.072z" />
</svg>
