<?xml version="1.0" encoding="utf-8"?>
<!-- Generated by IcoMoon.io -->
<!DOCTYPE svg PUBLIC "-//W3C//DTD SVG 1.1//EN" "http://www.w3.org/Graphics/SVG/1.1/DTD/svg11.dtd">
<svg version="1.1" xmlns="http://www.w3.org/2000/svg" xmlns:xlink="http://www.w3.org/1999/xlink" width="1024" height="1024" viewBox="0 0 1024 1024">
	<path d="M358.784 393.288h306.46v25.3h-306.46zM358.784 471.51h306.46v23.708h-306.46zM358.784 309.148h306.46v25.672h-306.46zM713.756 67.598h-402.404c-12.33 0-32.996 4.138-32.996 31.886v553.514c0 33.848 31.076 72.662 81.28 76.402 22.216 1.664 285.568 1.664 307.172 0 46.45-3.556 78.848-34.958 78.848-76.402v-553.514c-0.014-27.748-19.982-31.886-31.9-31.886zM700.344 586.070c0 20.822-6.984 52.75-45.994 52.75-82.29 0-180.266 0-282.51 0-38.998 0-45.994-31.928-45.994-52.75 0-20.808 0-485.134 0-485.134h374.514c-0.016 0-0.016 464.326-0.016 485.134zM358.784 135.78h306.46v67.882h-306.46zM404.906 955.52c8.050 0.526 50.888 0.882 106.552 0.882 55.68 0 98.518-0.356 106.552-0.882 13.924-0.882 39.88-12.744 39.822-37.134l0.028-77.312h-292.804c0.028 18.646 0.072 66.104 0.028 77.312-0.028 24.39 25.914 36.238 39.822 37.134zM512.568 764.288v0h-176.24c0 0 0 0 0 21.816 0 12.004 7.296 21.774 24.078 21.774h304.256c16.824 0 24.106-9.784 24.106-21.774 0-21.816 0-21.816 0-21.816h-176.2z" />
</svg>
