<?xml version="1.0" encoding="utf-8"?>
<!-- Generated by IcoMoon.io -->
<!DOCTYPE svg PUBLIC "-//W3C//DTD SVG 1.1//EN" "http://www.w3.org/Graphics/SVG/1.1/DTD/svg11.dtd">
<svg version="1.1" xmlns="http://www.w3.org/2000/svg" xmlns:xlink="http://www.w3.org/1999/xlink" width="1024" height="1024" viewBox="0 0 1024 1024">
	<path d="M485.39 520.406h-303.858v279.112c0 11.976 10.040 21.632 22.3 21.632h281.558v-300.744zM541.412 520.406v300.744h278.216c12.274 0 22.3-9.714 22.3-21.632v-279.112h-300.516zM838.742 381.156c-0.54 0-1.066 0.028-1.238 0.072l-167.082-0.002c28.658-15.928 65.266-44.928 70.712-81.38 3.882-26.14-8.732-51.356-37.56-74.994-17.792-14.578-35.996-22.002-54.102-22.002-62.634 0-109.142 86.258-133.532 144.924-24.42-58.666-70.926-144.924-133.56-144.924-18.090 0-36.31 7.41-54.102 22.002-28.814 23.638-41.444 48.868-37.546 74.994 5.432 36.438 42.040 65.45 70.698 81.38h-175.788c-18.46 0.398-46.776 17.706-46.776 65.48v22.116h746.268v-22.116c-0.014-36.75-22.528-65.55-46.392-65.55zM692.452 299.52c-6.172 36.636-71.95 70.998-97.934 81.706h-58.894c13.368-29.326 62.948-130.048 112.782-130.048 9.43 0 18.588 3.784 27.192 11.306 13.54 11.806 19.044 23.924 16.854 37.036zM496.242 381.226h-58.894c-25.984-10.71-91.79-45.112-97.948-81.736-2.176-13.084 3.314-25.188 16.854-37.006 8.604-7.524 17.764-11.306 27.192-11.306 49.848 0 99.412 100.708 112.796 130.048z" />
</svg>
