<?xml version="1.0" encoding="utf-8"?>
<!-- Generated by IcoMoon.io -->
<!DOCTYPE svg PUBLIC "-//W3C//DTD SVG 1.1//EN" "http://www.w3.org/Graphics/SVG/1.1/DTD/svg11.dtd">
<svg version="1.1" xmlns="http://www.w3.org/2000/svg" xmlns:xlink="http://www.w3.org/1999/xlink" width="1024" height="1024" viewBox="0 0 1024 1024">
	<path d="M828.758 453.248v0 0zM834.176 442.34c-1.138-3.67-5.176-4.808-10.666-5.916l-210.006-31.332-89.67-192.754c-2.36-4.024-5.29-8.42-8.804-8.42-3.442 0-5.646 2.888-7.992 6.998l-95.374 191.416-211.102 25.756c-4.552 0.938-9.558 2.36-10.652 5.618-1.080 3.272 0.938 6.3 4.096 9.828l152.674 149.96-40.902 209.308c-0.37 4.494-0.398 9.33 2.29 11.306 3 2.162 6.77 0.868 11.506-1.422l188.828-98.332 185.884 103.282c4.28 1.834 9.216 3.556 12.046 1.48 3-2.218 2.844-6.3 2.104-11.662l-35.114-209.522 155.434-144.668c3.172-3.458 6.472-7.596 5.42-10.924z" />
</svg>
