<?xml version="1.0" encoding="utf-8"?>
<!-- Generated by IcoMoon.io -->
<!DOCTYPE svg PUBLIC "-//W3C//DTD SVG 1.1//EN" "http://www.w3.org/Graphics/SVG/1.1/DTD/svg11.dtd">
<svg version="1.1" xmlns="http://www.w3.org/2000/svg" xmlns:xlink="http://www.w3.org/1999/xlink" width="1024" height="1024" viewBox="0 0 1024 1024">
	<path d="M512.014 253.64c-57.16 0-103.48 46.322-103.48 103.466s46.336 103.466 103.48 103.466 103.438-46.322 103.438-103.466-46.278-103.466-103.438-103.466zM512.014 410.226c-29.326 0-53.106-23.78-53.106-53.106s23.78-53.106 53.106-53.106 53.106 23.78 53.106 53.106-23.78 53.106-53.106 53.106zM761.642 347.080c0-137.714-111.688-249.416-249.628-249.416-137.956 0-249.672 111.702-249.672 249.416 0 39.496 9.4 76.7 25.672 109.924l-0.228 0.014 224.226 469.32 224.156-469.32-0.2-0.014c16.288-33.224 25.674-70.416 25.674-109.924zM512.014 512c-85.56 0-154.894-69.348-154.894-154.894s69.334-154.894 154.894-154.894 154.88 69.348 154.88 154.894-69.318 154.894-154.88 154.894z" />
</svg>
