<?xml version="1.0" encoding="utf-8"?>
<!-- Generated by IcoMoon.io -->
<!DOCTYPE svg PUBLIC "-//W3C//DTD SVG 1.1//EN" "http://www.w3.org/Graphics/SVG/1.1/DTD/svg11.dtd">
<svg version="1.1" xmlns="http://www.w3.org/2000/svg" xmlns:xlink="http://www.w3.org/1999/xlink" width="1024" height="1024" viewBox="0 0 1024 1024">
	<path d="M867.556 512c0 196.38-159.104 355.556-355.528 355.556-196.452 0-355.584-159.176-355.584-355.556 0-196.324 159.132-355.556 355.584-355.556 196.424 0 355.528 159.232 355.528 355.556zM512.028 274.488c-131.228 0-237.568 106.326-237.568 237.512 0 131.186 106.354 237.512 237.568 237.512 131.2-0 237.484-106.326 237.484-237.512 0-131.2-106.284-237.512-237.484-237.512zM390.116 512c0 67.331 54.582 121.913 121.913 121.913s121.913-54.582 121.913-121.913c0-67.331-54.582-121.913-121.913-121.913-67.331 0-121.913 54.582-121.913 121.913z" />
</svg>
