<?xml version="1.0" encoding="utf-8"?>
<!-- Generated by IcoMoon.io -->
<!DOCTYPE svg PUBLIC "-//W3C//DTD SVG 1.1//EN" "http://www.w3.org/Graphics/SVG/1.1/DTD/svg11.dtd">
<svg version="1.1" xmlns="http://www.w3.org/2000/svg" xmlns:xlink="http://www.w3.org/1999/xlink" width="1024" height="1024" viewBox="0 0 1024 1024">
	<path d="M812.758 139.848h-601.516c-15.018 0-27.306 12.274-27.306 27.292v689.692c0 15.018 12.288 27.306 27.306 27.306h601.528c15.018 0 27.306-12.288 27.306-27.306l0.002-689.692c-0.014-15.004-12.302-27.292-27.32-27.292zM499.114 715.848h-219.078v-246.928h219.064v246.928zM742.542 715.848h-188.146v-23.24h188.146v23.24zM742.542 632.504h-188.146v-23.24l188.146 0.002v23.238zM742.542 563.172h-188.146v-23.24h188.146v23.24zM742.542 492.146h-188.146v-23.224l188.146-0.002v23.226zM742.542 356.92h-462.506v-51.030h462.506l0 51.030zM224.398 146.716c0 4.352 6.158 7.694 13.668 7.424l532.11-18.034c7.496-0.256 11.976-6.372 9.884-13.596l-11.464-40.106c-2.062-7.224-9.828-12.33-17.294-11.378l-513.35 66.048c-7.438 0.966-13.554 5.29-13.554 9.642z" />
</svg>
