<?xml version="1.0" encoding="utf-8"?>
<!-- Generated by IcoMoon.io -->
<!DOCTYPE svg PUBLIC "-//W3C//DTD SVG 1.1//EN" "http://www.w3.org/Graphics/SVG/1.1/DTD/svg11.dtd">
<svg version="1.1" xmlns="http://www.w3.org/2000/svg" xmlns:xlink="http://www.w3.org/1999/xlink" width="1024" height="1024" viewBox="0 0 1024 1024">
	<path d="M819.826 358.2c-2.048-28.004-26.71-50.888-54.756-50.888l-506.112 0.002c-28.074 0-52.694 22.884-54.784 50.888l-39.736 539.15c-2.076 28.004 19.228 50.888 47.26 50.888h600.59c28.088 0 49.336-22.884 47.26-50.888l-39.722-539.152zM353.45 421.418c-22.442 0-40.618-17.622-40.618-39.352 0-21.802 18.176-39.396 40.618-39.396s40.618 17.592 40.618 39.396c0.002 21.732-18.174 39.352-40.618 39.352zM678.372 421.418c-22.442 0-40.632-17.622-40.632-39.352 0-21.802 18.19-39.396 40.632-39.396s40.618 17.592 40.618 39.396c0.014 21.732-18.176 39.352-40.618 39.352zM353.45 395.52c-9.372 0-17.18-7.338-17.664-16.796-0.37-7.112-8.264-175.588 70.116-258.19 28.174-29.696 63.872-44.772 106.098-44.772 42.154 0 78.18 15.048 107.108 44.672 80.398 82.432 77.156 250.71 77 257.82-0.27 9.784-9.33 16.81-18.148 17.252-9.784-0.228-17.508-8.348-17.294-18.104 0.042-1.608 3-160.598-66.958-232.278-22.302-22.842-49.040-33.934-81.708-33.934-32.554 0-58.852 11.008-80.37 33.678-67.912 71.496-60.558 230.428-60.472 231.992 0.512 9.784-6.998 18.104-16.782 18.632-0.3 0.014-0.598 0.028-0.926 0.028z" />
</svg>
